<svg width="40" height="40" viewBox="0 0 40 40" fill="none" xmlns="http://www.w3.org/2000/svg">
<path d="M19.995 9.73807C14.3162 9.73807 9.73307 14.3212 9.73307 20C9.73307 25.6788 14.3162 30.2619 19.995 30.2619C25.6738 30.2619 30.2569 25.6788 30.2569 20C30.2569 14.3212 25.6738 9.73807 19.995 9.73807ZM19.995 26.6695C16.3225 26.6695 13.3255 23.6725 13.3255 20C13.3255 16.3275 16.3225 13.3305 19.995 13.3305C23.6675 13.3305 26.6645 16.3275 26.6645 20C26.6645 23.6725 23.6675 26.6695 19.995 26.6695ZM30.6772 6.92617C29.3513 6.92617 28.2806 7.99689 28.2806 9.32279C28.2806 10.6487 29.3513 11.7194 30.6772 11.7194C32.0031 11.7194 33.0738 10.6537 33.0738 9.32279C33.0742 9.00795 33.0125 8.69612 32.8922 8.40517C32.7719 8.11422 32.5954 7.84986 32.3728 7.62724C32.1501 7.40461 31.8858 7.2281 31.5948 7.10779C31.3039 6.98749 30.9921 6.92577 30.6772 6.92617V6.92617ZM39.9985 20C39.9985 17.2381 40.0235 14.5013 39.8684 11.7444C39.7133 8.54226 38.9828 5.70034 36.6413 3.35876C34.2947 1.01217 31.4577 0.286681 28.2556 0.131576C25.4937 -0.0235287 22.7569 0.00148823 20 0.00148823C17.2381 0.00148823 14.5013 -0.0235287 11.7444 0.131576C8.54226 0.286681 5.70034 1.01717 3.35876 3.35876C1.01217 5.70534 0.286681 8.54226 0.131576 11.7444C-0.0235288 14.5063 0.00148823 17.2431 0.00148823 20C0.00148823 22.7569 -0.0235288 25.4987 0.131576 28.2556C0.286681 31.4577 1.01717 34.2997 3.35876 36.6412C5.70534 38.9878 8.54226 39.7133 11.7444 39.8684C14.5063 40.0235 17.2431 39.9985 20 39.9985C22.7619 39.9985 25.4987 40.0235 28.2556 39.8684C31.4577 39.7133 34.2997 38.9828 36.6413 36.6412C38.9878 34.2947 39.7133 31.4577 39.8684 28.2556C40.0285 25.4987 39.9985 22.7619 39.9985 20V20ZM35.5955 31.798C35.2303 32.7086 34.79 33.389 34.0845 34.0895C33.379 34.795 32.7036 35.2353 31.793 35.6005C29.1612 36.6462 22.912 36.4111 19.995 36.4111C17.078 36.4111 10.8238 36.6462 8.19202 35.6055C7.28141 35.2403 6.60095 34.8 5.90048 34.0945C5.195 33.389 4.7547 32.7136 4.38945 31.803C3.34875 29.1662 3.58391 22.917 3.58391 20C3.58391 17.083 3.34875 10.8288 4.38945 8.19703C4.7547 7.28641 5.195 6.60595 5.90048 5.90548C6.60595 5.205 7.28141 4.7597 8.19202 4.39446C10.8238 3.35375 17.078 3.58891 19.995 3.58891C22.912 3.58891 29.1662 3.35375 31.798 4.39446C32.7086 4.7597 33.3891 5.2 34.0895 5.90548C34.795 6.61095 35.2353 7.28641 35.6005 8.19703C36.6413 10.8288 36.4061 17.083 36.4061 20C36.4061 22.917 36.6413 29.1662 35.5955 31.798Z" fill="#333333"/>
</svg>
