<svg width="41" height="41" viewBox="0 0 41 41" fill="currentcolor" xmlns="http://www.w3.org/2000/svg">
<path d="M7.84601 0.0100098C3.53545 0.0100098 0.00750732 3.53787 0.00750732 7.84852V32.1728C0.00750732 36.4834 3.53537 40.01 7.84601 40.01H32.1703C36.4809 40.01 40.0075 36.4834 40.0075 32.1728V7.84852C40.0075 3.53795 36.4809 0.0100098 32.1703 0.0100098H7.84601ZM9.81751 6.61081C11.8843 6.61081 13.1574 7.96765 13.1967 9.75119C13.1967 11.4953 11.8843 12.8903 9.77754 12.8903H9.73876C7.71127 12.8903 6.40082 11.4954 6.40082 9.75119C6.40082 7.96769 7.75093 6.61081 9.81747 6.61081H9.81751ZM27.6285 14.9469C31.6034 14.9469 34.5831 17.5449 34.5831 23.1279V33.5504H28.5424V23.8267C28.5424 21.3832 27.6681 19.7161 25.482 19.7161C23.8131 19.7161 22.8184 20.8398 22.3816 21.9252C22.2221 22.3135 22.1828 22.8559 22.1828 23.3991V33.5504H16.1421C16.1421 33.5504 16.2214 17.0787 16.1421 15.3731H22.1841V17.9472C22.9868 16.7087 24.4227 14.9468 27.6285 14.9468V14.9469ZM6.75714 15.3744H12.7979V33.5505H6.75714V15.3744V15.3744Z" fill="currentcolor"/>
</svg>
