<svg width="51" height="39" viewBox="0 0 51 39" fill="currentcolor" xmlns="http://www.w3.org/2000/svg">
<path d="M47.5313 0H3.16875C2.32835 0 1.52236 0.34241 0.928105 0.951903C0.333849 1.5614 0 2.38805 0 3.25V35.75C0 36.612 0.333849 37.4386 0.928105 38.0481C1.52236 38.6576 2.32835 39 3.16875 39H47.5313C48.3717 39 49.1776 38.6576 49.7719 38.0481C50.3662 37.4386 50.7 36.612 50.7 35.75V3.25C50.7 2.38805 50.3662 1.5614 49.7719 0.951903C49.1776 0.34241 48.3717 0 47.5313 0V0ZM45.0913 35.75H5.79881L16.8894 23.985L14.6079 21.7263L3.16875 33.865V5.72L22.8625 25.8212C23.4562 26.4266 24.2594 26.7663 25.0965 26.7663C25.9336 26.7663 26.7368 26.4266 27.3305 25.8212L47.5313 5.21625V33.6537L35.8703 21.6938L33.6363 23.985L45.0913 35.75ZM5.24428 3.25H44.9646L25.0965 23.5137L5.24428 3.25Z" fill="currentcolor"/>
</svg>
